Coordinates
version=1
nRows=27
nColumns=38
inDegrees=no

Units are S.I. units (second, meters, Newtons, ...)
If the header above contains a line with 'inDegrees', this indicates whether rotational values are in degrees (yes) or radians (no).

endheader
time	pelvis_tilt	pelvis_list	pelvis_rotation	pelvis_tx	pelvis_ty	pelvis_tz	hip_flexion_r	hip_adduction_r	hip_rotation_r	knee_angle_r	ankle_angle_r	subtalar_angle_r	mtp_angle_r	hip_flexion_l	hip_adduction_l	hip_rotation_l	knee_angle_l	ankle_angle_l	subtalar_angle_l	mtp_angle_l	lumbar_extension	lumbar_bending	lumbar_rotation	arm_flex_r	arm_add_r	arm_rot_r	elbow_flex_r	pro_sup_r	wrist_flex_r	wrist_dev_r	arm_flex_l	arm_add_l	arm_rot_l	elbow_flex_l	pro_sup_l	wrist_flex_l	wrist_dev_l
0.2	-0.298531	0.00802788	-0.0854919	1.0715	1.03166	-0.355403	0.646675	0.0768521	0.163249	-0.2096	0.170512	0	0	0.306692	0.0494906	-0.0702382	-0.83812	-0.0767205	0	0	0.0872253	0.047784	-0.00825297	-0.771986	-0.212184	-0.314089	1.70167	1.78197	0	0	-0.347229	-0.180513	0.051841	2.22952	1.66589	0	0
0.21	-0.295225	0.00577312	-0.0831855	1.0715	1.02701	-0.355116	0.649422	0.0813185	0.163403	-0.242463	0.160408	0	0	0.323828	0.0377135	-0.0838792	-0.901193	-0.0738346	0	0	0.0834494	0.0515912	-0.00597713	-0.766365	-0.214394	-0.315881	1.70782	1.78206	0	0	-0.354046	-0.179078	0.0527984	2.21712	1.66948	0	0
0.22	-0.290598	0.00336122	-0.0819571	1.07152	1.02136	-0.354616	0.655377	0.0876311	0.161489	-0.290231	0.145013	0	0	0.341649	0.0240151	-0.0982167	-0.966733	-0.0641466	0	0	0.0780026	0.0553391	-0.0013437	-0.759089	-0.217384	-0.316496	1.71294	1.78058	0	0	-0.360372	-0.177984	0.0538966	2.20176	1.66611	0	0
0.23	-0.287311	-0.000456693	-0.0829805	1.0713	1.01463	-0.353649	0.668464	0.0985532	0.161053	-0.353115	0.131799	0	0	0.363614	0.00416407	-0.116779	-1.03554	-0.0504927	0	0	0.0739317	0.0604408	0.00645325	-0.750151	-0.22113	-0.316154	1.71658	1.78001	0	0	-0.366813	-0.176959	0.0543105	2.18337	1.66867	0	0
0.24	-0.285568	-0.00580834	-0.086996	1.07078	1.00703	-0.35219	0.688371	0.11516	0.165115	-0.428181	0.135335	0	0	0.388889	-0.0224742	-0.13914	-1.10553	-0.0357159	0	0	0.0714328	0.0670259	0.0180441	-0.738925	-0.225424	-0.315319	1.71763	1.78378	0	0	-0.373414	-0.17561	0.0531579	2.16125	1.6937	0	0
0.25	-0.284356	-0.0121196	-0.0923203	1.06995	0.999027	-0.350667	0.71164	0.135084	0.171143	-0.509677	0.161372	0	0	0.415976	-0.0516511	-0.159192	-1.17448	-0.0219365	0	0	0.0693275	0.0746997	0.0319542	-0.724586	-0.230436	-0.31356	1.71465	1.78108	0	0	-0.379172	-0.173784	0.0536393	2.1338	1.6937	0	0
0.26	-0.283545	-0.0185169	-0.0989074	1.06866	0.99097	-0.34931	0.736356	0.156717	0.178294	-0.593387	0.200244	0	0	0.444805	-0.0840347	-0.180099	-1.24159	-0.00804201	0	0	0.0669175	0.0827945	0.0478328	-0.705994	-0.236544	-0.310801	1.70673	1.77736	0	0	-0.383512	-0.17098	0.0539816	2.09964	1.70223	0	0
0.27	-0.279136	-0.0237272	-0.104694	1.06687	0.983625	-0.348117	0.75407	0.175347	0.181994	-0.670737	0.239944	0	0	0.471583	-0.112795	-0.195139	-1.30469	0.00635374	0	0	0.0587477	0.0886248	0.0630916	-0.679812	-0.243291	-0.305007	1.692	1.77416	0	0	-0.385296	-0.168046	0.0529881	2.05864	1.7209	0	0
0.28	-0.268206	-0.0275048	-0.109472	1.06458	0.977576	-0.346686	0.759005	0.189866	0.182685	-0.737381	0.276834	0	0	0.493629	-0.136461	-0.203917	-1.36313	0.0224243	0	0	0.0408474	0.0904262	0.0767327	-0.643009	-0.249995	-0.293787	1.66844	1.7706	0	0	-0.384346	-0.165723	0.0492709	2.01099	1.74753	0	0
0.29	-0.254011	-0.0303093	-0.111946	1.06209	0.972812	-0.345076	0.751688	0.199602	0.18093	-0.788672	0.31052	0	0	0.514452	-0.151124	-0.201714	-1.41495	0.038836	0	0	0.0184199	0.0891706	0.0869799	-0.597414	-0.256315	-0.277363	1.63658	1.77246	0	0	-0.382519	-0.163679	0.043828	1.95747	1.767	0	0
0.3	-0.243754	-0.032351	-0.112729	1.05991	0.968591	-0.343789	0.739437	0.205547	0.179022	-0.824441	0.338773	0	0	0.539118	-0.159995	-0.194232	-1.45717	0.0539226	0	0	0.00218644	0.0881796	0.0955574	-0.551426	-0.262919	-0.259337	1.60364	1.77484	0	0	-0.382175	-0.160746	0.039293	1.90246	1.77937	0	0
0.31	-0.24319	-0.0368207	-0.109083	1.05795	0.964618	-0.343507	0.732897	0.208874	0.171018	-0.852951	0.372948	0	0	0.577937	-0.168726	-0.180592	-1.49734	0.0714703	0	0	-0.00099773	0.0927378	0.0996873	-0.506145	-0.270839	-0.240906	1.56737	1.78864	0	0	-0.383435	-0.154327	0.0349939	1.83591	1.83331	0	0
0.32	-0.249117	-0.0402396	-0.105388	1.05628	0.96112	-0.343933	0.727059	0.210085	0.165349	-0.870862	0.400665	0	0	0.622525	-0.175028	-0.168111	-1.52835	0.0862526	0	0	0.00480725	0.0990368	0.106256	-0.467153	-0.279054	-0.224536	1.53898	1.79519	0	0	-0.384976	-0.147953	0.0372407	1.76828	1.85094	0	0
0.33	-0.256187	-0.0421628	-0.102633	1.05454	0.958752	-0.344442	0.717615	0.209999	0.162893	-0.879909	0.421519	0	0	0.666579	-0.178907	-0.157805	-1.54956	0.0974518	0	0	0.011497	0.10401	0.116212	-0.432325	-0.286598	-0.209748	1.52122	1.79922	0	0	-0.386644	-0.143874	0.0416749	1.70559	1.85883	0	0
0.34	-0.264323	-0.0439411	-0.100478	1.0523	0.957928	-0.344716	0.703745	0.20928	0.161395	-0.87851	0.441757	0	0	0.712812	-0.180553	-0.146133	-1.56454	0.106856	0	0	0.0177345	0.108049	0.128541	-0.400439	-0.291648	-0.196804	1.51463	1.8075	0	0	-0.38887	-0.143056	0.0447626	1.64726	1.89706	0	0
0.35	-0.267282	-0.0434424	-0.0997365	1.05008	0.958845	-0.344614	0.680357	0.207166	0.164439	-0.869941	0.455156	0	0	0.749438	-0.179282	-0.138013	-1.56799	0.113618	0	0	0.0167722	0.107223	0.143315	-0.371067	-0.295056	-0.18446	1.52197	1.80826	0	0	-0.395351	-0.14665	0.0437323	1.61032	1.9097	0	0
0.36	-0.269137	-0.0419067	-0.0990482	1.04813	0.961051	-0.344495	0.653315	0.203596	0.16893	-0.856591	0.462652	0	0	0.78059	-0.176569	-0.132319	-1.5609	0.11862	0	0	0.0150049	0.104103	0.158844	-0.345576	-0.29767	-0.17384	1.53992	1.80784	0	0	-0.407868	-0.153588	0.0374399	1.59485	1.91633	0	0
0.37	-0.270333	-0.039647	-0.0989714	1.0468	0.964509	-0.344359	0.619914	0.198869	0.175889	-0.834225	0.468198	0	0	0.806854	-0.174154	-0.130056	-1.545	0.126167	0	0	0.013477	0.0993486	0.174411	-0.324643	-0.299033	-0.164868	1.56746	1.81106	0	0	-0.427473	-0.162131	0.0260034	1.60061	1.92956	0	0
0.38	-0.27304	-0.036347	-0.0995939	1.04601	0.968866	-0.344165	0.584917	0.193042	0.184569	-0.806316	0.467438	0	0	0.830184	-0.172486	-0.131706	-1.52018	0.133578	0	0	0.0151872	0.0930861	0.189907	-0.30804	-0.299731	-0.156994	1.60079	1.81328	0	0	-0.452606	-0.17211	0.0151633	1.62182	1.92017	0	0
0.39	-0.27683	-0.0323857	-0.100044	1.04561	0.974022	-0.343994	0.549059	0.185857	0.193524	-0.774367	0.459328	0	0	0.850515	-0.170874	-0.136121	-1.48711	0.139762	0	0	0.0192233	0.0858292	0.204124	-0.29477	-0.300289	-0.149885	1.63771	1.81527	0	0	-0.480739	-0.182274	0.00661047	1.65107	1.90399	0	0
0.4	-0.279373	-0.0281775	-0.0997391	1.04556	0.98	-0.343939	0.510404	0.177393	0.202656	-0.739065	0.443297	0	0	0.864846	-0.170634	-0.144938	-1.44616	0.146253	0	0	0.0222197	0.0780376	0.216654	-0.283878	-0.300895	-0.144448	1.67706	1.8288	0	0	-0.509148	-0.192025	0.0021957	1.68238	1.86217	0	0
0.41	-0.283054	-0.0244327	-0.0975207	1.04559	0.986408	-0.344124	0.474681	0.168199	0.208832	-0.70525	0.419666	0	0	0.87832	-0.168072	-0.152626	-1.39986	0.150394	0	0	0.0265232	0.0708273	0.225892	-0.275009	-0.301909	-0.137715	1.71675	1.82563	0	0	-0.537244	-0.199521	-0.00526261	1.71305	1.86691	0	0
0.42	-0.283199	-0.0202462	-0.0943378	1.04605	0.993507	-0.344393	0.433005	0.157362	0.214795	-0.66655	0.386064	0	0	0.881787	-0.165243	-0.164943	-1.34422	0.157172	0	0	0.02651	0.062695	0.233314	-0.267589	-0.302223	-0.132697	1.75802	1.84074	0	0	-0.564116	-0.206659	-0.0115503	1.74403	1.83062	0	0
0.43	-0.285377	-0.0171618	-0.0910658	1.04637	1.00064	-0.344654	0.397992	0.148035	0.217563	-0.63417	0.349731	0	0	0.886912	-0.160224	-0.173992	-1.28582	0.161678	0	0	0.028242	0.0561354	0.23948	-0.26164	-0.302499	-0.126581	1.79749	1.84743	0	0	-0.589687	-0.211384	-0.0223612	1.7724	1.83012	0	0
0.44	-0.286621	-0.014204	-0.0878582	1.04687	1.00791	-0.34493	0.363056	0.13847	0.218495	-0.60218	0.308117	0	0	0.886748	-0.152903	-0.182948	-1.22042	0.16689	0	0	0.0285096	0.0496771	0.244425	-0.256812	-0.30272	-0.120335	1.8366	1.85739	0	0	-0.614224	-0.214507	-0.035153	1.79939	1.82982	0	0
0.45	-0.286269	-0.0112015	-0.0842295	1.04753	1.01524	-0.345319	0.327935	0.128135	0.216598	-0.571263	0.261225	0	0	0.880342	-0.14134	-0.189492	-1.14749	0.172229	0	0	0.026491	0.0431904	0.24766	-0.25294	-0.303111	-0.114481	1.87553	1.87609	0	0	-0.637157	-0.215888	-0.0487391	1.82416	1.82375	0	0
0.46	-0.289288	-0.00918883	-0.0817105	1.04792	1.02193	-0.345689	0.302309	0.120227	0.213256	-0.549611	0.21703	0	0	0.87837	-0.12802	-0.19042	-1.07513	0.173749	0	0	0.0279625	0.0387031	0.251098	-0.251084	-0.303945	-0.108504	1.91302	1.88594	0	0	-0.658213	-0.215624	-0.0621282	1.84523	1.82534	0	0
